<mxfile host="app.diagrams.net" modified="2020-04-25T19:11:45.700Z" agent="5.0 (Windows NT 10.0; Win64; x64) AppleWebKit/537.36 (KHTML, like Gecko) Chrome/81.0.4044.122 Safari/537.36" etag="ppYbFZZK5tT96529VCa7" version="13.0.1" type="github">
  <diagram name="Page-1" id="5f0bae14-7c28-e335-631c-24af17079c00">
    <mxGraphModel dx="2522" dy="762" grid="1" gridSize="10" guides="1" tooltips="1" connect="1" arrows="1" fold="1" page="1" pageScale="1" pageWidth="1100" pageHeight="850" background="none" math="0" shadow="0">
      <root>
        <mxCell id="0" />
        <mxCell id="1" parent="0" />
        <mxCell id="Hf6axC6okhhk_GOs8BiA-9" value="Repositories" style="verticalAlign=top;align=left;spacingTop=8;spacingLeft=2;spacingRight=12;shape=cube;size=10;direction=south;fontStyle=4;html=1;strokeColor=#808080;" parent="1" vertex="1">
          <mxGeometry x="1140" y="1265" width="1430" height="940" as="geometry" />
        </mxCell>
        <mxCell id="Hf6axC6okhhk_GOs8BiA-10" value="Interfaces" style="verticalAlign=top;align=left;spacingTop=8;spacingLeft=2;spacingRight=12;shape=cube;size=10;direction=south;fontStyle=4;html=1;strokeColor=#808080;" parent="1" vertex="1">
          <mxGeometry x="1176.75" y="1635" width="396" height="555" as="geometry" />
        </mxCell>
        <mxCell id="aXafU3iH4kMMsSfXDqzR-27" value="" style="rounded=0;whiteSpace=wrap;html=1;" parent="1" vertex="1">
          <mxGeometry x="617" y="720" width="220" height="160" as="geometry" />
        </mxCell>
        <mxCell id="39150e848f15840c-1" value="&lt;font style=&quot;font-size: 13px&quot;&gt;&lt;b&gt;ConsoleApp&lt;/b&gt;&lt;/font&gt;" style="verticalAlign=top;align=left;spacingTop=8;spacingLeft=2;spacingRight=12;shape=cube;size=10;direction=south;fontStyle=4;html=1;rounded=0;shadow=0;comic=0;labelBackgroundColor=none;strokeWidth=1;fontFamily=Verdana;fontSize=12;strokeColor=#808080;" parent="1" vertex="1">
          <mxGeometry x="10" y="466" width="350" height="224" as="geometry" />
        </mxCell>
        <mxCell id="39150e848f15840c-2" value="&lt;b&gt;&lt;font style=&quot;font-size: 13px&quot;&gt;Services&lt;/font&gt;&lt;/b&gt;" style="verticalAlign=top;align=left;spacingTop=8;spacingLeft=2;spacingRight=12;shape=cube;size=10;direction=south;fontStyle=4;html=1;rounded=0;shadow=0;comic=0;labelBackgroundColor=none;strokeWidth=1;fontFamily=Verdana;fontSize=12;strokeColor=#808080;" parent="1" vertex="1">
          <mxGeometry x="380" y="466" width="190" height="224" as="geometry" />
        </mxCell>
        <mxCell id="39150e848f15840c-3" value="&lt;font style=&quot;font-size: 13px&quot;&gt;&lt;b&gt;Repositories&lt;/b&gt;&lt;/font&gt;" style="verticalAlign=top;align=left;spacingTop=8;spacingLeft=2;spacingRight=12;shape=cube;size=10;direction=south;fontStyle=4;html=1;rounded=0;shadow=0;comic=0;labelBackgroundColor=none;strokeWidth=1;fontFamily=Verdana;fontSize=12;strokeColor=#808080;" parent="1" vertex="1">
          <mxGeometry x="590" y="466" width="370" height="224" as="geometry" />
        </mxCell>
        <mxCell id="DyfukURyH_TfwYr2f_5J-4" style="edgeStyle=orthogonalEdgeStyle;rounded=0;orthogonalLoop=1;jettySize=auto;html=1;" parent="1" source="DyfukURyH_TfwYr2f_5J-1" target="DyfukURyH_TfwYr2f_5J-2" edge="1">
          <mxGeometry relative="1" as="geometry" />
        </mxCell>
        <mxCell id="DyfukURyH_TfwYr2f_5J-1" value="&lt;font style=&quot;font-size: 13px&quot;&gt;ConsoleApp / UI&lt;br&gt;&lt;/font&gt;&lt;br&gt;&lt;span style=&quot;font-weight: normal&quot;&gt;Show content to user.&lt;br&gt;Accept User input.&lt;br&gt;Calls &lt;/span&gt;Services&lt;span style=&quot;font-weight: normal&quot;&gt;&amp;nbsp;for handling any operation.&lt;/span&gt;" style="shape=folder;fontStyle=1;spacingTop=10;tabWidth=40;tabHeight=14;tabPosition=left;html=1;" parent="1" vertex="1">
          <mxGeometry x="29.5" y="130" width="250" height="100" as="geometry" />
        </mxCell>
        <mxCell id="DyfukURyH_TfwYr2f_5J-5" style="edgeStyle=orthogonalEdgeStyle;rounded=0;orthogonalLoop=1;jettySize=auto;html=1;" parent="1" source="DyfukURyH_TfwYr2f_5J-2" target="DyfukURyH_TfwYr2f_5J-3" edge="1">
          <mxGeometry relative="1" as="geometry" />
        </mxCell>
        <mxCell id="DyfukURyH_TfwYr2f_5J-2" value="&lt;font style=&quot;font-size: 13px&quot;&gt;Services&lt;br&gt;&lt;/font&gt;&lt;br&gt;&lt;span style=&quot;font-weight: normal&quot;&gt;Business logic - any functionality&lt;br&gt;not related to UI and Data.&lt;br&gt;Calls&amp;nbsp;&lt;/span&gt;Repositories &lt;span style=&quot;font-weight: normal&quot;&gt;for any data manipulation.&lt;/span&gt;" style="shape=folder;fontStyle=1;spacingTop=10;tabWidth=40;tabHeight=14;tabPosition=left;html=1;" parent="1" vertex="1">
          <mxGeometry x="339.5" y="130" width="250" height="100" as="geometry" />
        </mxCell>
        <mxCell id="mV1QOZqxOxAXT04KssM9-19" style="edgeStyle=orthogonalEdgeStyle;rounded=0;orthogonalLoop=1;jettySize=auto;html=1;entryX=0;entryY=0.5;entryDx=0;entryDy=0;" parent="1" source="DyfukURyH_TfwYr2f_5J-3" target="mV1QOZqxOxAXT04KssM9-40" edge="1">
          <mxGeometry relative="1" as="geometry">
            <mxPoint x="960" y="180" as="targetPoint" />
          </mxGeometry>
        </mxCell>
        <mxCell id="DyfukURyH_TfwYr2f_5J-3" value="&lt;font style=&quot;font-size: 13px&quot;&gt;Repositories&lt;/font&gt;&lt;br&gt;&lt;br&gt;&lt;span style=&quot;font-weight: normal&quot;&gt;Data &lt;/span&gt;&lt;span style=&quot;font-weight: 400&quot;&gt;persistence&lt;/span&gt;&lt;span style=&quot;font-weight: normal&quot;&gt;.&lt;/span&gt;&lt;br&gt;&lt;span style=&quot;font-weight: normal&quot;&gt;Read and write from/to data store.&lt;/span&gt;&lt;br&gt;&lt;span style=&quot;font-weight: normal&quot;&gt;Doesn&#39;t depend on any other module.&lt;/span&gt;" style="shape=folder;fontStyle=1;spacingTop=10;tabWidth=40;tabHeight=14;tabPosition=left;html=1;" parent="1" vertex="1">
          <mxGeometry x="649.5" y="130" width="250" height="100" as="geometry" />
        </mxCell>
        <mxCell id="DyfukURyH_TfwYr2f_5J-6" value="" style="line;strokeWidth=1;fillColor=none;align=left;verticalAlign=middle;spacingTop=-1;spacingLeft=3;spacingRight=3;rotatable=0;labelPosition=right;points=[];portConstraint=eastwest;" parent="1" vertex="1">
          <mxGeometry x="10" y="402" width="1080" height="8" as="geometry" />
        </mxCell>
        <mxCell id="DyfukURyH_TfwYr2f_5J-9" value="TodoApp" style="text;html=1;strokeColor=none;fillColor=none;align=center;verticalAlign=middle;whiteSpace=wrap;rounded=0;fontSize=22;fontStyle=1" parent="1" vertex="1">
          <mxGeometry x="490" y="10" width="120" height="50" as="geometry" />
        </mxCell>
        <mxCell id="DyfukURyH_TfwYr2f_5J-10" value="" style="line;strokeWidth=1;fillColor=none;align=left;verticalAlign=middle;spacingTop=-1;spacingLeft=3;spacingRight=3;rotatable=0;labelPosition=right;points=[];portConstraint=eastwest;" parent="1" vertex="1">
          <mxGeometry x="10" y="70" width="1080" height="8" as="geometry" />
        </mxCell>
        <mxCell id="DyfukURyH_TfwYr2f_5J-11" value="High level overview" style="text;html=1;strokeColor=none;fillColor=none;align=center;verticalAlign=middle;whiteSpace=wrap;rounded=0;fontSize=18;fontStyle=1" parent="1" vertex="1">
          <mxGeometry x="412" y="78" width="275" height="36" as="geometry" />
        </mxCell>
        <mxCell id="DyfukURyH_TfwYr2f_5J-12" value="&lt;font style=&quot;font-size: 14px&quot;&gt;Each module has its purpose, and handles specific functionality of the app. Each module will have sub-modules and will split the logic into smaller logical pieces.&lt;br style=&quot;font-size: 14px&quot;&gt;Dependency goes one way - from left to right. So UI depends on Services and Services depends on Repositories. If a new module is added, it should respect this rule.&lt;br style=&quot;font-size: 14px&quot;&gt;No module on the right should depend on module of its left. Otherwise this will lead to circular dependencies, code coupling and additional complexity.&lt;/font&gt;" style="text;html=1;strokeColor=none;fillColor=none;align=left;verticalAlign=middle;whiteSpace=wrap;rounded=0;fontSize=14;" parent="1" vertex="1">
          <mxGeometry x="30" y="320" width="1040" height="80" as="geometry" />
        </mxCell>
        <mxCell id="DyfukURyH_TfwYr2f_5J-14" value="Module Breakdown" style="text;html=1;strokeColor=none;fillColor=none;align=center;verticalAlign=middle;whiteSpace=wrap;rounded=0;fontSize=18;fontStyle=1" parent="1" vertex="1">
          <mxGeometry x="412" y="410" width="275" height="36" as="geometry" />
        </mxCell>
        <mxCell id="mV1QOZqxOxAXT04KssM9-10" style="edgeStyle=orthogonalEdgeStyle;rounded=0;orthogonalLoop=1;jettySize=auto;html=1;exitX=0.5;exitY=1;exitDx=0;exitDy=0;entryX=0.25;entryY=0;entryDx=0;entryDy=0;" parent="1" source="mV1QOZqxOxAXT04KssM9-5" target="mV1QOZqxOxAXT04KssM9-7" edge="1">
          <mxGeometry relative="1" as="geometry" />
        </mxCell>
        <mxCell id="mV1QOZqxOxAXT04KssM9-5" value="Views" style="shape=component;align=center;spacingLeft=36;" parent="1" vertex="1">
          <mxGeometry x="20" y="516" width="140" height="50" as="geometry" />
        </mxCell>
        <mxCell id="mV1QOZqxOxAXT04KssM9-8" style="edgeStyle=orthogonalEdgeStyle;rounded=0;orthogonalLoop=1;jettySize=auto;html=1;entryX=1;entryY=0.5;entryDx=0;entryDy=0;" parent="1" source="mV1QOZqxOxAXT04KssM9-6" target="mV1QOZqxOxAXT04KssM9-5" edge="1">
          <mxGeometry relative="1" as="geometry" />
        </mxCell>
        <mxCell id="mV1QOZqxOxAXT04KssM9-9" style="edgeStyle=orthogonalEdgeStyle;rounded=0;orthogonalLoop=1;jettySize=auto;html=1;exitX=0.5;exitY=1;exitDx=0;exitDy=0;entryX=0.75;entryY=0;entryDx=0;entryDy=0;" parent="1" source="mV1QOZqxOxAXT04KssM9-6" target="mV1QOZqxOxAXT04KssM9-7" edge="1">
          <mxGeometry relative="1" as="geometry" />
        </mxCell>
        <mxCell id="mV1QOZqxOxAXT04KssM9-32" style="edgeStyle=orthogonalEdgeStyle;rounded=0;orthogonalLoop=1;jettySize=auto;html=1;exitX=1;exitY=0.5;exitDx=0;exitDy=0;entryX=0;entryY=0.5;entryDx=0;entryDy=0;" parent="1" source="mV1QOZqxOxAXT04KssM9-6" target="mV1QOZqxOxAXT04KssM9-22" edge="1">
          <mxGeometry relative="1" as="geometry">
            <mxPoint x="420" y="630" as="targetPoint" />
            <Array as="points">
              <mxPoint x="340" y="541" />
              <mxPoint x="340" y="541" />
            </Array>
          </mxGeometry>
        </mxCell>
        <mxCell id="mV1QOZqxOxAXT04KssM9-6" value="Controllers" style="shape=component;align=center;spacingLeft=36;" parent="1" vertex="1">
          <mxGeometry x="194.5" y="516" width="140" height="50" as="geometry" />
        </mxCell>
        <mxCell id="mV1QOZqxOxAXT04KssM9-7" value="ViewModels" style="shape=component;align=center;spacingLeft=36;" parent="1" vertex="1">
          <mxGeometry x="110" y="616" width="140" height="50" as="geometry" />
        </mxCell>
        <mxCell id="mV1QOZqxOxAXT04KssM9-17" style="edgeStyle=orthogonalEdgeStyle;rounded=0;orthogonalLoop=1;jettySize=auto;html=1;entryX=0.5;entryY=1;entryDx=0;entryDy=0;dashed=1;" parent="1" edge="1">
          <mxGeometry relative="1" as="geometry">
            <mxPoint x="598" y="550" as="targetPoint" />
          </mxGeometry>
        </mxCell>
        <mxCell id="mV1QOZqxOxAXT04KssM9-22" value="Interfaces" style="shape=component;align=center;spacingLeft=36;" parent="1" vertex="1">
          <mxGeometry x="400" y="516" width="140" height="50" as="geometry" />
        </mxCell>
        <mxCell id="mV1QOZqxOxAXT04KssM9-28" style="edgeStyle=orthogonalEdgeStyle;rounded=0;orthogonalLoop=1;jettySize=auto;html=1;entryX=0.5;entryY=1;entryDx=0;entryDy=0;dashed=1;endArrow=block;endFill=0;" parent="1" source="mV1QOZqxOxAXT04KssM9-23" target="mV1QOZqxOxAXT04KssM9-22" edge="1">
          <mxGeometry relative="1" as="geometry" />
        </mxCell>
        <mxCell id="mV1QOZqxOxAXT04KssM9-30" style="edgeStyle=orthogonalEdgeStyle;rounded=0;orthogonalLoop=1;jettySize=auto;html=1;entryX=0;entryY=0.5;entryDx=0;entryDy=0;exitX=1;exitY=0.5;exitDx=0;exitDy=0;" parent="1" source="mV1QOZqxOxAXT04KssM9-23" target="mV1QOZqxOxAXT04KssM9-26" edge="1">
          <mxGeometry relative="1" as="geometry">
            <Array as="points">
              <mxPoint x="580" y="641" />
              <mxPoint x="580" y="541" />
            </Array>
          </mxGeometry>
        </mxCell>
        <mxCell id="mV1QOZqxOxAXT04KssM9-23" value="Services" style="shape=component;align=center;spacingLeft=36;" parent="1" vertex="1">
          <mxGeometry x="400" y="616" width="140" height="50" as="geometry" />
        </mxCell>
        <mxCell id="aXafU3iH4kMMsSfXDqzR-3" style="edgeStyle=orthogonalEdgeStyle;rounded=0;orthogonalLoop=1;jettySize=auto;html=1;exitX=0.5;exitY=1;exitDx=0;exitDy=0;entryX=0.5;entryY=0;entryDx=0;entryDy=0;" parent="1" source="mV1QOZqxOxAXT04KssM9-26" target="aXafU3iH4kMMsSfXDqzR-2" edge="1">
          <mxGeometry relative="1" as="geometry" />
        </mxCell>
        <mxCell id="mV1QOZqxOxAXT04KssM9-26" value="Interfaces" style="shape=component;align=center;spacingLeft=36;" parent="1" vertex="1">
          <mxGeometry x="617" y="516" width="140" height="50" as="geometry" />
        </mxCell>
        <mxCell id="mV1QOZqxOxAXT04KssM9-36" style="edgeStyle=orthogonalEdgeStyle;rounded=0;orthogonalLoop=1;jettySize=auto;html=1;exitX=1;exitY=0.5;exitDx=0;exitDy=0;entryX=0;entryY=0.5;entryDx=0;entryDy=0;entryPerimeter=0;" parent="1" source="mV1QOZqxOxAXT04KssM9-27" target="mV1QOZqxOxAXT04KssM9-35" edge="1">
          <mxGeometry relative="1" as="geometry" />
        </mxCell>
        <mxCell id="aXafU3iH4kMMsSfXDqzR-1" style="edgeStyle=orthogonalEdgeStyle;rounded=0;orthogonalLoop=1;jettySize=auto;html=1;exitX=0;exitY=0.3;exitDx=0;exitDy=0;entryX=1;entryY=0.25;entryDx=0;entryDy=0;dashed=1;endArrow=block;endFill=0;" parent="1" source="mV1QOZqxOxAXT04KssM9-27" target="mV1QOZqxOxAXT04KssM9-26" edge="1">
          <mxGeometry relative="1" as="geometry" />
        </mxCell>
        <mxCell id="mV1QOZqxOxAXT04KssM9-27" value="XML Repositories" style="shape=component;align=center;spacingLeft=36;" parent="1" vertex="1">
          <mxGeometry x="795" y="480" width="140" height="50" as="geometry" />
        </mxCell>
        <mxCell id="mV1QOZqxOxAXT04KssM9-34" style="edgeStyle=orthogonalEdgeStyle;rounded=0;orthogonalLoop=1;jettySize=auto;html=1;exitX=0;exitY=0.5;exitDx=0;exitDy=0;entryX=1;entryY=0.5;entryDx=0;entryDy=0;dashed=1;endArrow=block;endFill=0;textOpacity=60;opacity=60;strokeColor=#707070;fontColor=#707070;" parent="1" source="mV1QOZqxOxAXT04KssM9-33" target="mV1QOZqxOxAXT04KssM9-26" edge="1">
          <mxGeometry relative="1" as="geometry">
            <Array as="points">
              <mxPoint x="795" y="541" />
            </Array>
          </mxGeometry>
        </mxCell>
        <mxCell id="mV1QOZqxOxAXT04KssM9-38" style="edgeStyle=orthogonalEdgeStyle;rounded=0;orthogonalLoop=1;jettySize=auto;html=1;exitX=1;exitY=0.5;exitDx=0;exitDy=0;entryX=0;entryY=0.5;entryDx=0;entryDy=0;entryPerimeter=0;opacity=60;strokeColor=#707070;fontColor=#707070;" parent="1" source="mV1QOZqxOxAXT04KssM9-33" target="mV1QOZqxOxAXT04KssM9-37" edge="1">
          <mxGeometry relative="1" as="geometry" />
        </mxCell>
        <mxCell id="mV1QOZqxOxAXT04KssM9-33" value="SQL Repositories" style="shape=component;align=center;spacingLeft=36;labelBorderColor=none;textOpacity=60;opacity=60;strokeColor=#707070;fontColor=#707070;" parent="1" vertex="1">
          <mxGeometry x="795" y="556" width="140" height="50" as="geometry" />
        </mxCell>
        <mxCell id="mV1QOZqxOxAXT04KssM9-35" value="XML Files" style="strokeWidth=1;html=1;shape=mxgraph.flowchart.multi-document;whiteSpace=wrap;align=center;" parent="1" vertex="1">
          <mxGeometry x="1001" y="480" width="78" height="50" as="geometry" />
        </mxCell>
        <mxCell id="mV1QOZqxOxAXT04KssM9-37" value="&lt;br&gt;SQL Database" style="strokeWidth=1;html=1;shape=mxgraph.flowchart.database;whiteSpace=wrap;align=center;opacity=60;textOpacity=60;strokeColor=#707070;fontColor=#707070;" parent="1" vertex="1">
          <mxGeometry x="1007" y="549" width="66" height="64" as="geometry" />
        </mxCell>
        <mxCell id="mV1QOZqxOxAXT04KssM9-40" value="&lt;b style=&quot;font-size: 13px&quot;&gt;Data store&lt;br&gt;&lt;/b&gt;&lt;br&gt;XML, SQL, JSON, etc." style="shape=datastore;whiteSpace=wrap;html=1;strokeColor=#FFFFFF;strokeWidth=1;align=center;" parent="1" vertex="1">
          <mxGeometry x="960" y="130" width="110" height="100" as="geometry" />
        </mxCell>
        <mxCell id="mV1QOZqxOxAXT04KssM9-47" value="Dependency flow" style="html=1;shadow=0;dashed=0;align=center;verticalAlign=middle;shape=mxgraph.arrows2.arrow;dy=0.47;dx=42;notch=0;strokeColor=#FFFFFF;strokeWidth=1;" parent="1" vertex="1">
          <mxGeometry x="320" y="246" width="460" height="60" as="geometry" />
        </mxCell>
        <mxCell id="mV1QOZqxOxAXT04KssM9-53" style="edgeStyle=orthogonalEdgeStyle;rounded=0;orthogonalLoop=1;jettySize=auto;html=1;exitX=1;exitY=0.5;exitDx=0;exitDy=0;entryX=0;entryY=0.5;entryDx=0;entryDy=0;endArrow=classic;endFill=1;endSize=6;targetPerimeterSpacing=0;strokeWidth=1;fillColor=none;fontColor=#707070;opacity=60;spacing=1;strokeColor=#707070;" parent="1" source="mV1QOZqxOxAXT04KssM9-49" target="mV1QOZqxOxAXT04KssM9-50" edge="1">
          <mxGeometry relative="1" as="geometry" />
        </mxCell>
        <mxCell id="mV1QOZqxOxAXT04KssM9-54" style="edgeStyle=orthogonalEdgeStyle;rounded=0;orthogonalLoop=1;jettySize=auto;html=1;exitX=0;exitY=0.5;exitDx=0;exitDy=0;entryX=1;entryY=0.75;entryDx=0;entryDy=0;endArrow=block;endFill=0;endSize=6;targetPerimeterSpacing=0;strokeWidth=1;fillColor=none;fontColor=#707070;opacity=60;dashed=1;strokeColor=#707070;" parent="1" source="mV1QOZqxOxAXT04KssM9-49" target="mV1QOZqxOxAXT04KssM9-26" edge="1">
          <mxGeometry relative="1" as="geometry">
            <Array as="points">
              <mxPoint x="795" y="651" />
              <mxPoint x="777" y="651" />
              <mxPoint x="777" y="554" />
            </Array>
          </mxGeometry>
        </mxCell>
        <mxCell id="mV1QOZqxOxAXT04KssM9-49" value="Other Repository" style="shape=component;align=center;spacingLeft=36;labelBorderColor=none;textOpacity=60;opacity=60;strokeColor=#707070;fontColor=#707070;" parent="1" vertex="1">
          <mxGeometry x="795" y="630" width="140" height="50" as="geometry" />
        </mxCell>
        <mxCell id="mV1QOZqxOxAXT04KssM9-50" value="Other&lt;br&gt;data store" style="shape=datastore;whiteSpace=wrap;html=1;strokeColor=#707070;strokeWidth=1;opacity=60;align=center;fontColor=#707070;" parent="1" vertex="1">
          <mxGeometry x="1008.5" y="625" width="63" height="60" as="geometry" />
        </mxCell>
        <mxCell id="aXafU3iH4kMMsSfXDqzR-2" value="Models" style="shape=component;align=center;spacingLeft=36;" parent="1" vertex="1">
          <mxGeometry x="617" y="616" width="140" height="50" as="geometry" />
        </mxCell>
        <mxCell id="aXafU3iH4kMMsSfXDqzR-7" value="Legend" style="text;html=1;strokeColor=none;fillColor=none;align=center;verticalAlign=middle;whiteSpace=wrap;rounded=0;fontStyle=1;fontSize=13;" parent="1" vertex="1">
          <mxGeometry x="707" y="730" width="40" height="20" as="geometry" />
        </mxCell>
        <mxCell id="aXafU3iH4kMMsSfXDqzR-8" style="edgeStyle=orthogonalEdgeStyle;rounded=0;orthogonalLoop=1;jettySize=auto;html=1;exitX=1;exitY=0.5;exitDx=0;exitDy=0;entryX=0;entryY=0.5;entryDx=0;entryDy=0;" parent="1" source="aXafU3iH4kMMsSfXDqzR-11" target="aXafU3iH4kMMsSfXDqzR-13" edge="1">
          <mxGeometry relative="1" as="geometry">
            <mxPoint x="655" y="800" as="sourcePoint" />
            <mxPoint x="685" y="800" as="targetPoint" />
          </mxGeometry>
        </mxCell>
        <mxCell id="aXafU3iH4kMMsSfXDqzR-10" value="A Uses B" style="text;html=1;strokeColor=none;fillColor=none;align=right;verticalAlign=middle;whiteSpace=wrap;rounded=0;" parent="1" vertex="1">
          <mxGeometry x="753" y="750" width="70" height="20" as="geometry" />
        </mxCell>
        <mxCell id="aXafU3iH4kMMsSfXDqzR-11" value="A" style="text;html=1;strokeColor=none;fillColor=none;align=center;verticalAlign=middle;whiteSpace=wrap;rounded=0;" parent="1" vertex="1">
          <mxGeometry x="635.5" y="750" width="11" height="20" as="geometry" />
        </mxCell>
        <mxCell id="aXafU3iH4kMMsSfXDqzR-13" value="B" style="text;html=1;strokeColor=none;fillColor=none;align=center;verticalAlign=middle;whiteSpace=wrap;rounded=0;" parent="1" vertex="1">
          <mxGeometry x="675.5" y="750" width="11" height="20" as="geometry" />
        </mxCell>
        <mxCell id="aXafU3iH4kMMsSfXDqzR-22" style="edgeStyle=orthogonalEdgeStyle;rounded=0;orthogonalLoop=1;jettySize=auto;html=1;exitX=1;exitY=0.5;exitDx=0;exitDy=0;entryX=0;entryY=0.5;entryDx=0;entryDy=0;endArrow=block;endFill=0;dashed=1;" parent="1" source="aXafU3iH4kMMsSfXDqzR-23" target="aXafU3iH4kMMsSfXDqzR-24" edge="1">
          <mxGeometry relative="1" as="geometry">
            <mxPoint x="655" y="830" as="sourcePoint" />
            <mxPoint x="685" y="830" as="targetPoint" />
          </mxGeometry>
        </mxCell>
        <mxCell id="aXafU3iH4kMMsSfXDqzR-23" value="A" style="text;html=1;strokeColor=none;fillColor=none;align=center;verticalAlign=middle;whiteSpace=wrap;rounded=0;" parent="1" vertex="1">
          <mxGeometry x="635.5" y="780" width="11" height="20" as="geometry" />
        </mxCell>
        <mxCell id="aXafU3iH4kMMsSfXDqzR-24" value="B" style="text;html=1;strokeColor=none;fillColor=none;align=center;verticalAlign=middle;whiteSpace=wrap;rounded=0;" parent="1" vertex="1">
          <mxGeometry x="675.5" y="780" width="11" height="20" as="geometry" />
        </mxCell>
        <mxCell id="aXafU3iH4kMMsSfXDqzR-25" value="A Implements B" style="text;html=1;strokeColor=none;fillColor=none;align=right;verticalAlign=middle;whiteSpace=wrap;rounded=0;" parent="1" vertex="1">
          <mxGeometry x="733" y="780" width="90" height="20" as="geometry" />
        </mxCell>
        <mxCell id="aXafU3iH4kMMsSfXDqzR-29" value="Future improvements" style="text;html=1;strokeColor=none;fillColor=none;align=right;verticalAlign=middle;whiteSpace=wrap;rounded=0;" parent="1" vertex="1">
          <mxGeometry x="703" y="840" width="120" height="20" as="geometry" />
        </mxCell>
        <mxCell id="aXafU3iH4kMMsSfXDqzR-30" value="&lt;h1&gt;ConsoleApp - TODO&lt;/h1&gt;&lt;div&gt;The ConsoleApp will implement the MVC pattern.&lt;/div&gt;&lt;div&gt;TODO&lt;/div&gt;" style="text;html=1;strokeColor=none;fillColor=none;spacing=5;spacingTop=-20;whiteSpace=wrap;overflow=hidden;rounded=0;" parent="1" vertex="1">
          <mxGeometry x="-1070" y="880" width="532" height="190" as="geometry" />
        </mxCell>
        <mxCell id="aXafU3iH4kMMsSfXDqzR-31" value="&lt;h1&gt;Services&lt;/h1&gt;&lt;div&gt;The Services module will handle the business layer.&lt;/div&gt;&lt;div&gt;It includes set of interfaces that are exposed and used by the ConsoleApp.&lt;/div&gt;&lt;div&gt;The interfaces are implemented by classes that will contain the actual functionality and will meet the business requirements.&lt;/div&gt;" style="text;html=1;strokeColor=none;fillColor=none;spacing=5;spacingTop=-20;whiteSpace=wrap;overflow=hidden;rounded=0;" parent="1" vertex="1">
          <mxGeometry x="30" y="880" width="532" height="180" as="geometry" />
        </mxCell>
        <mxCell id="aXafU3iH4kMMsSfXDqzR-32" value="&lt;h1&gt;Repositories&lt;/h1&gt;&lt;div&gt;This module will implement the Repository pattern. This help encapsulating the data persistence&amp;nbsp;layer.&lt;/div&gt;&lt;div&gt;&lt;br&gt;&lt;/div&gt;&lt;div&gt;The &lt;b&gt;Models &lt;/b&gt;sub-module contains simple data models. Every model represents the data persisted in the Data source. Every model has unique Identifier, so we create a IModel interface to include this common field.&lt;/div&gt;&lt;div&gt;&lt;br&gt;&lt;/div&gt;&lt;div&gt;The &lt;b&gt;Interfaces &lt;/b&gt;sub-module contains all repository definitions (interfaces). All common functionality is part of the base IRepository interface. The common functionality is the standard CRUD operation, and the Save method.&lt;/div&gt;&lt;div&gt;Every data model/entity has its own repository, that &lt;span&gt;extends the base interface and can add additional methods, if required.&lt;/span&gt;&lt;/div&gt;&lt;div&gt;&lt;br&gt;&lt;/div&gt;&lt;div&gt;Each different Data source will have its sub-module. Every sub-module contains abstract class implementing IRepository. For now we will have &lt;b&gt;XML &lt;/b&gt;data source and sub-module. The &lt;b&gt;RepositoryBase &lt;/b&gt;abstract class will implement the common CRUD operations and will work over XML Document. When Save() is called the changes are persistent into the actual XML file.&lt;/div&gt;&lt;div&gt;Every data model/entity has its own repository class, implementing its interface.&lt;/div&gt;&lt;div&gt;&lt;br&gt;&lt;/div&gt;&lt;div&gt;Every operation made from the repositories will not immediately persist into the Data source. The change will be logged or saved in-memory (RAM), and when the Save() method is called, the actual Data source will get updated.&lt;/div&gt;" style="text;html=1;strokeColor=none;fillColor=none;spacing=5;spacingTop=-20;whiteSpace=wrap;overflow=hidden;rounded=0;" parent="1" vertex="1">
          <mxGeometry x="1140" y="880" width="900" height="280" as="geometry" />
        </mxCell>
        <mxCell id="Hf6axC6okhhk_GOs8BiA-2" value="Services" style="verticalAlign=top;align=left;spacingTop=8;spacingLeft=2;spacingRight=12;shape=cube;size=10;direction=south;fontStyle=4;html=1;strokeColor=#808080;" parent="1" vertex="1">
          <mxGeometry x="215.5" y="1050" width="509" height="450" as="geometry" />
        </mxCell>
        <mxCell id="Hf6axC6okhhk_GOs8BiA-3" value="Interfaces" style="verticalAlign=top;align=left;spacingTop=8;spacingLeft=2;spacingRight=12;shape=cube;size=10;direction=south;fontStyle=4;html=1;strokeColor=#808080;" parent="1" vertex="1">
          <mxGeometry x="239.5" y="1100" width="230" height="380" as="geometry" />
        </mxCell>
        <mxCell id="Hf6axC6okhhk_GOs8BiA-5" value="&lt;p style=&quot;margin: 0px ; margin-top: 4px ; text-align: center&quot;&gt;&lt;i&gt;&amp;lt;&amp;lt;Interface&amp;gt;&amp;gt;&lt;/i&gt;&lt;br&gt;&lt;b&gt;ITodoService&lt;/b&gt;&lt;/p&gt;&lt;p style=&quot;margin: 0px ; margin-left: 4px&quot;&gt;&lt;br&gt;&lt;/p&gt;&lt;hr size=&quot;1&quot;&gt;&lt;p style=&quot;margin: 0px ; margin-left: 4px&quot;&gt;+ GetAll(): Todo[]&lt;br&gt;+ etc...&lt;/p&gt;" style="verticalAlign=top;align=left;overflow=fill;fontSize=12;fontFamily=Helvetica;html=1;" parent="1" vertex="1">
          <mxGeometry x="254.5" y="1150" width="190" height="140" as="geometry" />
        </mxCell>
        <mxCell id="Hf6axC6okhhk_GOs8BiA-6" value="&lt;p style=&quot;margin: 0px ; margin-top: 4px ; text-align: center&quot;&gt;&lt;i&gt;&amp;lt;&amp;lt;Interface&amp;gt;&amp;gt;&lt;/i&gt;&lt;br&gt;&lt;b&gt;IUserService&lt;/b&gt;&lt;/p&gt;&lt;p style=&quot;margin: 0px ; margin-left: 4px&quot;&gt;&lt;br&gt;&lt;/p&gt;&lt;hr size=&quot;1&quot;&gt;&lt;p style=&quot;margin: 0px ; margin-left: 4px&quot;&gt;+ GetAll(): User[]&lt;br&gt;+ etc...&lt;/p&gt;" style="verticalAlign=top;align=left;overflow=fill;fontSize=12;fontFamily=Helvetica;html=1;opacity=70;strokeColor=#808080;textOpacity=70;fontColor=#808080;" parent="1" vertex="1">
          <mxGeometry x="254.5" y="1310" width="190" height="140" as="geometry" />
        </mxCell>
        <mxCell id="Hf6axC6okhhk_GOs8BiA-7" value="&lt;p style=&quot;margin: 0px ; margin-top: 4px ; text-align: center&quot;&gt;&lt;b&gt;TodoService&lt;/b&gt;&lt;/p&gt;&lt;hr size=&quot;1&quot;&gt;&lt;p style=&quot;margin: 0px ; margin-left: 4px&quot;&gt;- todoRepo: ITodoRepository&lt;/p&gt;&lt;hr size=&quot;1&quot;&gt;&lt;p style=&quot;margin: 0px ; margin-left: 4px&quot;&gt;+ GetAll(): Todo[]&lt;/p&gt;&lt;p style=&quot;margin: 0px ; margin-left: 4px&quot;&gt;+ etc...&lt;/p&gt;" style="verticalAlign=top;align=left;overflow=fill;fontSize=12;fontFamily=Helvetica;html=1;" parent="1" vertex="1">
          <mxGeometry x="515.5" y="1175" width="160" height="90" as="geometry" />
        </mxCell>
        <mxCell id="Hf6axC6okhhk_GOs8BiA-8" value="&lt;p style=&quot;margin: 0px ; margin-top: 4px ; text-align: center&quot;&gt;&lt;b&gt;UserService&lt;/b&gt;&lt;/p&gt;&lt;hr size=&quot;1&quot;&gt;&lt;p style=&quot;margin: 0px ; margin-left: 4px&quot;&gt;- userRepo: IUserRepository&lt;/p&gt;&lt;hr size=&quot;1&quot;&gt;&lt;p style=&quot;margin: 0px ; margin-left: 4px&quot;&gt;+ GetAll(): User[]&lt;/p&gt;&lt;p style=&quot;margin: 0px ; margin-left: 4px&quot;&gt;+ etc...&lt;/p&gt;" style="verticalAlign=top;align=left;overflow=fill;fontSize=12;fontFamily=Helvetica;html=1;opacity=70;strokeColor=#808080;textOpacity=70;fontColor=#808080;" parent="1" vertex="1">
          <mxGeometry x="505.5" y="1335" width="160" height="90" as="geometry" />
        </mxCell>
        <mxCell id="AVWZLnaALgfRunMzj7om-76" value="" style="edgeStyle=orthogonalEdgeStyle;rounded=0;orthogonalLoop=1;jettySize=auto;html=1;startArrow=none;startFill=0;endArrow=classic;endFill=1;strokeWidth=1;fontColor=#808080;entryX=0;entryY=0;entryDx=280;entryDy=355;entryPerimeter=0;" parent="1" source="Hf6axC6okhhk_GOs8BiA-10" target="AVWZLnaALgfRunMzj7om-42" edge="1">
          <mxGeometry relative="1" as="geometry" />
        </mxCell>
        <mxCell id="Hf6axC6okhhk_GOs8BiA-11" value="&lt;p style=&quot;margin: 0px ; margin-top: 4px ; text-align: center&quot;&gt;&lt;i&gt;&amp;lt;&amp;lt;Interface&amp;gt;&amp;gt;&lt;/i&gt;&lt;br&gt;&lt;b&gt;IRepository&amp;lt;TModel&amp;lt;TId&amp;gt;&amp;gt;&lt;/b&gt;&lt;/p&gt;&lt;hr size=&quot;1&quot;&gt;&lt;p style=&quot;margin: 0px ; margin-left: 4px&quot;&gt;+ GetAll(): IEnumarable&amp;lt;TModel&amp;gt;&lt;br&gt;+ Get(Filter, Sort): IEnumarable&amp;lt;TModel&amp;gt;&lt;/p&gt;&lt;p style=&quot;margin: 0px ; margin-left: 4px&quot;&gt;+ GetById(TId): TModel&lt;/p&gt;&lt;p style=&quot;margin: 0px ; margin-left: 4px&quot;&gt;+ Insert(TModel): TModel&lt;/p&gt;&lt;p style=&quot;margin: 0px ; margin-left: 4px&quot;&gt;+ Update(TModel): void&lt;/p&gt;&lt;p style=&quot;margin: 0px ; margin-left: 4px&quot;&gt;+ Delete(TId): void&lt;/p&gt;&lt;p style=&quot;margin: 0px ; margin-left: 4px&quot;&gt;+ Save(): bool&lt;/p&gt;" style="verticalAlign=top;align=left;overflow=fill;fontSize=12;fontFamily=Helvetica;html=1;" parent="1" vertex="1">
          <mxGeometry x="1204.25" y="1675" width="316" height="150" as="geometry" />
        </mxCell>
        <mxCell id="AVWZLnaALgfRunMzj7om-30" value="" style="edgeStyle=orthogonalEdgeStyle;rounded=0;orthogonalLoop=1;jettySize=auto;html=1;startArrow=none;startFill=0;endArrow=block;endFill=0;strokeWidth=1;fontColor=#808080;" parent="1" source="Hf6axC6okhhk_GOs8BiA-12" target="Hf6axC6okhhk_GOs8BiA-11" edge="1">
          <mxGeometry relative="1" as="geometry" />
        </mxCell>
        <mxCell id="Hf6axC6okhhk_GOs8BiA-12" value="&lt;p style=&quot;margin: 0px ; margin-top: 4px ; text-align: center&quot;&gt;&lt;i&gt;&amp;lt;&amp;lt;Interface&amp;gt;&amp;gt;&lt;/i&gt;&lt;br&gt;&lt;b&gt;ITodoRepository: IRepository&amp;lt;TodoModel&amp;gt;&lt;/b&gt;&lt;/p&gt;&lt;hr size=&quot;1&quot;&gt;&lt;p style=&quot;margin: 0px ; margin-left: 4px&quot;&gt;&lt;br&gt;&lt;/p&gt;" style="verticalAlign=top;align=left;overflow=fill;fontSize=12;fontFamily=Helvetica;html=1;" parent="1" vertex="1">
          <mxGeometry x="1220.25" y="1990" width="284" height="80" as="geometry" />
        </mxCell>
        <mxCell id="Hf6axC6okhhk_GOs8BiA-16" style="edgeStyle=orthogonalEdgeStyle;rounded=0;orthogonalLoop=1;jettySize=auto;html=1;exitX=0;exitY=0.25;exitDx=0;exitDy=0;entryX=0.25;entryY=1;entryDx=0;entryDy=0;endArrow=block;endFill=0;opacity=70;strokeColor=#808080;" parent="1" source="Hf6axC6okhhk_GOs8BiA-14" target="Hf6axC6okhhk_GOs8BiA-11" edge="1">
          <mxGeometry relative="1" as="geometry">
            <Array as="points">
              <mxPoint x="1218" y="2062" />
              <mxPoint x="1193" y="2062" />
              <mxPoint x="1193" y="1875" />
              <mxPoint x="1283" y="1875" />
            </Array>
          </mxGeometry>
        </mxCell>
        <mxCell id="AVWZLnaALgfRunMzj7om-78" value="" style="edgeStyle=orthogonalEdgeStyle;rounded=0;orthogonalLoop=1;jettySize=auto;html=1;startArrow=none;startFill=0;endArrow=classic;endFill=1;strokeWidth=1;fontColor=#808080;entryX=0;entryY=0;entryDx=280;entryDy=355;entryPerimeter=0;" parent="1" source="Hf6axC6okhhk_GOs8BiA-17" target="AVWZLnaALgfRunMzj7om-42" edge="1">
          <mxGeometry relative="1" as="geometry" />
        </mxCell>
        <mxCell id="Hf6axC6okhhk_GOs8BiA-17" value="XML" style="verticalAlign=top;align=left;spacingTop=8;spacingLeft=2;spacingRight=12;shape=cube;size=10;direction=south;fontStyle=4;html=1;strokeColor=#808080;" parent="1" vertex="1">
          <mxGeometry x="1602.75" y="1635" width="837.25" height="555" as="geometry" />
        </mxCell>
        <mxCell id="Hf6axC6okhhk_GOs8BiA-18" value="RepositoryBase&lt;TModel&lt;TId&gt;&gt;" style="swimlane;fontStyle=3;align=center;verticalAlign=top;childLayout=stackLayout;horizontal=1;startSize=26;horizontalStack=0;resizeParent=1;resizeParentMax=0;resizeLast=0;collapsible=1;marginBottom=0;" parent="1" vertex="1">
          <mxGeometry x="1642.75" y="1665" width="230" height="320" as="geometry" />
        </mxCell>
        <mxCell id="Hf6axC6okhhk_GOs8BiA-21" value="# ContainerElement: XElement" style="text;strokeColor=none;fillColor=none;align=left;verticalAlign=top;spacingLeft=4;spacingRight=4;overflow=hidden;rotatable=0;points=[[0,0.5],[1,0.5]];portConstraint=eastwest;" parent="Hf6axC6okhhk_GOs8BiA-18" vertex="1">
          <mxGeometry y="26" width="230" height="26" as="geometry" />
        </mxCell>
        <mxCell id="AVWZLnaALgfRunMzj7om-108" value="# IdName: string" style="text;strokeColor=none;fillColor=none;align=left;verticalAlign=top;spacingLeft=4;spacingRight=4;overflow=hidden;rotatable=0;points=[[0,0.5],[1,0.5]];portConstraint=eastwest;" parent="Hf6axC6okhhk_GOs8BiA-18" vertex="1">
          <mxGeometry y="52" width="230" height="26" as="geometry" />
        </mxCell>
        <mxCell id="AVWZLnaALgfRunMzj7om-107" value="# Context: IXmlContext" style="text;strokeColor=none;fillColor=none;align=left;verticalAlign=top;spacingLeft=4;spacingRight=4;overflow=hidden;rotatable=0;points=[[0,0.5],[1,0.5]];portConstraint=eastwest;" parent="Hf6axC6okhhk_GOs8BiA-18" vertex="1">
          <mxGeometry y="78" width="230" height="26" as="geometry" />
        </mxCell>
        <mxCell id="Hf6axC6okhhk_GOs8BiA-20" value="" style="line;strokeWidth=1;fillColor=none;align=left;verticalAlign=middle;spacingTop=-1;spacingLeft=3;spacingRight=3;rotatable=0;labelPosition=right;points=[];portConstraint=eastwest;" parent="Hf6axC6okhhk_GOs8BiA-18" vertex="1">
          <mxGeometry y="104" width="230" height="8" as="geometry" />
        </mxCell>
        <mxCell id="AVWZLnaALgfRunMzj7om-9" value="+ &lt;&lt;constructor&gt;&gt;(IXmlContext: context)&#xa;" style="text;strokeColor=none;fillColor=none;align=left;verticalAlign=top;spacingLeft=4;spacingRight=4;overflow=hidden;rotatable=0;points=[[0,0.5],[1,0.5]];portConstraint=eastwest;fontStyle=2" parent="Hf6axC6okhhk_GOs8BiA-18" vertex="1">
          <mxGeometry y="112" width="230" height="26" as="geometry" />
        </mxCell>
        <mxCell id="AVWZLnaALgfRunMzj7om-109" value="+ GetAll(): IEnumarable&lt;TModel&gt;&#xa;" style="text;strokeColor=none;fillColor=none;align=left;verticalAlign=top;spacingLeft=4;spacingRight=4;overflow=hidden;rotatable=0;points=[[0,0.5],[1,0.5]];portConstraint=eastwest;" parent="Hf6axC6okhhk_GOs8BiA-18" vertex="1">
          <mxGeometry y="138" width="230" height="26" as="geometry" />
        </mxCell>
        <mxCell id="AVWZLnaALgfRunMzj7om-15" value="+ Get(Filter, Sort): IEnumarable&lt;TModel&gt;&#xa;" style="text;strokeColor=none;fillColor=none;align=left;verticalAlign=top;spacingLeft=4;spacingRight=4;overflow=hidden;rotatable=0;points=[[0,0.5],[1,0.5]];portConstraint=eastwest;" parent="Hf6axC6okhhk_GOs8BiA-18" vertex="1">
          <mxGeometry y="164" width="230" height="26" as="geometry" />
        </mxCell>
        <mxCell id="AVWZLnaALgfRunMzj7om-10" value="+ GetById(TId): TModel&#xa;" style="text;strokeColor=none;fillColor=none;align=left;verticalAlign=top;spacingLeft=4;spacingRight=4;overflow=hidden;rotatable=0;points=[[0,0.5],[1,0.5]];portConstraint=eastwest;" parent="Hf6axC6okhhk_GOs8BiA-18" vertex="1">
          <mxGeometry y="190" width="230" height="26" as="geometry" />
        </mxCell>
        <mxCell id="AVWZLnaALgfRunMzj7om-11" value="+ Insert(TModel): TModel&#xa;" style="text;strokeColor=none;fillColor=none;align=left;verticalAlign=top;spacingLeft=4;spacingRight=4;overflow=hidden;rotatable=0;points=[[0,0.5],[1,0.5]];portConstraint=eastwest;" parent="Hf6axC6okhhk_GOs8BiA-18" vertex="1">
          <mxGeometry y="216" width="230" height="26" as="geometry" />
        </mxCell>
        <mxCell id="AVWZLnaALgfRunMzj7om-12" value="+ Update(TModel): void&#xa;" style="text;strokeColor=none;fillColor=none;align=left;verticalAlign=top;spacingLeft=4;spacingRight=4;overflow=hidden;rotatable=0;points=[[0,0.5],[1,0.5]];portConstraint=eastwest;" parent="Hf6axC6okhhk_GOs8BiA-18" vertex="1">
          <mxGeometry y="242" width="230" height="26" as="geometry" />
        </mxCell>
        <mxCell id="AVWZLnaALgfRunMzj7om-13" value="+ Delete(TId): void&#xa;" style="text;strokeColor=none;fillColor=none;align=left;verticalAlign=top;spacingLeft=4;spacingRight=4;overflow=hidden;rotatable=0;points=[[0,0.5],[1,0.5]];portConstraint=eastwest;" parent="Hf6axC6okhhk_GOs8BiA-18" vertex="1">
          <mxGeometry y="268" width="230" height="26" as="geometry" />
        </mxCell>
        <mxCell id="AVWZLnaALgfRunMzj7om-14" value="+ Save(): bool" style="text;strokeColor=none;fillColor=none;align=left;verticalAlign=top;spacingLeft=4;spacingRight=4;overflow=hidden;rotatable=0;points=[[0,0.5],[1,0.5]];portConstraint=eastwest;" parent="Hf6axC6okhhk_GOs8BiA-18" vertex="1">
          <mxGeometry y="294" width="230" height="26" as="geometry" />
        </mxCell>
        <mxCell id="AVWZLnaALgfRunMzj7om-1" value="A" style="rounded=0;whiteSpace=wrap;html=1;strokeWidth=1;opacity=70;strokeColor=#808080;textOpacity=70;fontColor=#808080;" parent="1" vertex="1">
          <mxGeometry x="635.5" y="840" width="51.5" height="20" as="geometry" />
        </mxCell>
        <mxCell id="AVWZLnaALgfRunMzj7om-2" style="edgeStyle=orthogonalEdgeStyle;rounded=0;orthogonalLoop=1;jettySize=auto;html=1;exitX=1;exitY=0.5;exitDx=0;exitDy=0;entryX=0;entryY=0.5;entryDx=0;entryDy=0;endArrow=none;endFill=0;dashed=1;startArrow=block;startFill=0;" parent="1" source="Hf6axC6okhhk_GOs8BiA-5" target="Hf6axC6okhhk_GOs8BiA-7" edge="1">
          <mxGeometry relative="1" as="geometry">
            <mxPoint x="509" y="780" as="sourcePoint" />
            <mxPoint x="538.5" y="780" as="targetPoint" />
          </mxGeometry>
        </mxCell>
        <mxCell id="AVWZLnaALgfRunMzj7om-4" style="edgeStyle=orthogonalEdgeStyle;rounded=0;orthogonalLoop=1;jettySize=auto;html=1;exitX=1;exitY=0.5;exitDx=0;exitDy=0;entryX=0;entryY=0.5;entryDx=0;entryDy=0;endArrow=none;endFill=0;dashed=1;startArrow=block;startFill=0;strokeColor=#808080;opacity=70;" parent="1" source="Hf6axC6okhhk_GOs8BiA-6" target="Hf6axC6okhhk_GOs8BiA-8" edge="1">
          <mxGeometry relative="1" as="geometry">
            <mxPoint x="454.5" y="1230" as="sourcePoint" />
            <mxPoint x="525.5" y="1230" as="targetPoint" />
          </mxGeometry>
        </mxCell>
        <mxCell id="AVWZLnaALgfRunMzj7om-6" style="edgeStyle=orthogonalEdgeStyle;rounded=0;orthogonalLoop=1;jettySize=auto;html=1;exitX=1.006;exitY=0.14;exitDx=0;exitDy=0;endArrow=none;endFill=0;dashed=1;startArrow=block;startFill=0;exitPerimeter=0;" parent="1" source="Hf6axC6okhhk_GOs8BiA-11" edge="1">
          <mxGeometry relative="1" as="geometry">
            <mxPoint x="1947.75" y="915" as="sourcePoint" />
            <mxPoint x="1643.25" y="1685" as="targetPoint" />
            <Array as="points">
              <mxPoint x="1593.25" y="1696" />
              <mxPoint x="1593.25" y="1685" />
            </Array>
          </mxGeometry>
        </mxCell>
        <mxCell id="AVWZLnaALgfRunMzj7om-29" value="" style="edgeStyle=orthogonalEdgeStyle;rounded=0;orthogonalLoop=1;jettySize=auto;html=1;startArrow=none;startFill=0;endArrow=block;endFill=0;fontColor=#808080;entryX=0.5;entryY=1;entryDx=0;entryDy=0;entryPerimeter=0;exitX=0.5;exitY=0;exitDx=0;exitDy=0;" parent="1" source="AVWZLnaALgfRunMzj7om-18" target="AVWZLnaALgfRunMzj7om-14" edge="1">
          <mxGeometry relative="1" as="geometry" />
        </mxCell>
        <mxCell id="AVWZLnaALgfRunMzj7om-35" value="" style="edgeStyle=orthogonalEdgeStyle;rounded=0;orthogonalLoop=1;jettySize=auto;html=1;startArrow=none;startFill=0;endArrow=block;endFill=0;strokeColor=#FFFFFF;strokeWidth=1;fillColor=none;gradientColor=none;fontColor=#808080;dashed=1;exitX=0;exitY=0.25;exitDx=0;exitDy=0;entryX=1;entryY=0.25;entryDx=0;entryDy=0;" parent="1" source="AVWZLnaALgfRunMzj7om-18" target="Hf6axC6okhhk_GOs8BiA-12" edge="1">
          <mxGeometry relative="1" as="geometry">
            <mxPoint x="1501.25" y="1957" as="targetPoint" />
            <Array as="points">
              <mxPoint x="1643" y="2010" />
            </Array>
          </mxGeometry>
        </mxCell>
        <mxCell id="AVWZLnaALgfRunMzj7om-18" value="TodoRepository" style="swimlane;fontStyle=1;align=center;verticalAlign=top;childLayout=stackLayout;horizontal=1;startSize=26;horizontalStack=0;resizeParent=1;resizeParentMax=0;resizeLast=0;collapsible=1;marginBottom=0;" parent="1" vertex="1">
          <mxGeometry x="1642.75" y="2010" width="230" height="60" as="geometry">
            <mxRectangle x="500" y="2300" width="120" height="26" as="alternateBounds" />
          </mxGeometry>
        </mxCell>
        <mxCell id="AVWZLnaALgfRunMzj7om-20" value="" style="line;strokeWidth=1;fillColor=none;align=left;verticalAlign=middle;spacingTop=-1;spacingLeft=3;spacingRight=3;rotatable=0;labelPosition=right;points=[];portConstraint=eastwest;" parent="AVWZLnaALgfRunMzj7om-18" vertex="1">
          <mxGeometry y="26" width="230" height="8" as="geometry" />
        </mxCell>
        <mxCell id="AVWZLnaALgfRunMzj7om-19" value="+ " style="text;strokeColor=none;fillColor=none;align=left;verticalAlign=top;spacingLeft=4;spacingRight=4;overflow=hidden;rotatable=0;points=[[0,0.5],[1,0.5]];portConstraint=eastwest;" parent="AVWZLnaALgfRunMzj7om-18" vertex="1">
          <mxGeometry y="34" width="230" height="26" as="geometry" />
        </mxCell>
        <mxCell id="AVWZLnaALgfRunMzj7om-41" value="" style="edgeStyle=orthogonalEdgeStyle;rounded=0;orthogonalLoop=1;jettySize=auto;html=1;startArrow=none;startFill=0;endArrow=block;endFill=0;strokeColor=#808080;strokeWidth=1;fillColor=none;gradientColor=none;fontColor=#808080;opacity=70;entryX=0.743;entryY=1.038;entryDx=0;entryDy=0;entryPerimeter=0;exitX=1;exitY=0.25;exitDx=0;exitDy=0;" parent="1" source="AVWZLnaALgfRunMzj7om-31" target="AVWZLnaALgfRunMzj7om-14" edge="1">
          <mxGeometry relative="1" as="geometry">
            <mxPoint x="1952.75" y="2082" as="targetPoint" />
            <Array as="points">
              <mxPoint x="1873" y="2061" />
              <mxPoint x="1893" y="2061" />
              <mxPoint x="1893" y="2000" />
              <mxPoint x="1814" y="2000" />
            </Array>
          </mxGeometry>
        </mxCell>
        <mxCell id="AVWZLnaALgfRunMzj7om-31" value="IUserRepository&#xa;" style="swimlane;fontStyle=1;align=center;verticalAlign=top;childLayout=stackLayout;horizontal=1;startSize=26;horizontalStack=0;resizeParent=1;resizeParentMax=0;resizeLast=0;collapsible=1;marginBottom=0;opacity=70;strokeColor=#808080;textOpacity=70;fontColor=#808080;" parent="1" vertex="1">
          <mxGeometry x="1642.75" y="2090" width="230" height="60" as="geometry">
            <mxRectangle x="500" y="2300" width="120" height="26" as="alternateBounds" />
          </mxGeometry>
        </mxCell>
        <mxCell id="AVWZLnaALgfRunMzj7om-33" value="" style="line;strokeWidth=1;fillColor=none;align=left;verticalAlign=middle;spacingTop=-1;spacingLeft=3;spacingRight=3;rotatable=0;labelPosition=right;points=[];portConstraint=eastwest;strokeColor=#808080;opacity=70;" parent="AVWZLnaALgfRunMzj7om-31" vertex="1">
          <mxGeometry y="26" width="230" height="8" as="geometry" />
        </mxCell>
        <mxCell id="AVWZLnaALgfRunMzj7om-34" value="+ " style="text;strokeColor=none;fillColor=none;align=left;verticalAlign=top;spacingLeft=4;spacingRight=4;overflow=hidden;rotatable=0;points=[[0,0.5],[1,0.5]];portConstraint=eastwest;textOpacity=70;fontColor=#808080;" parent="AVWZLnaALgfRunMzj7om-31" vertex="1">
          <mxGeometry y="34" width="230" height="26" as="geometry" />
        </mxCell>
        <mxCell id="AVWZLnaALgfRunMzj7om-36" value="" style="edgeStyle=orthogonalEdgeStyle;rounded=0;orthogonalLoop=1;jettySize=auto;html=1;dashed=1;startArrow=none;startFill=0;endArrow=block;endFill=0;strokeColor=#808080;strokeWidth=1;fillColor=none;gradientColor=none;fontColor=#808080;entryX=1;entryY=0.25;entryDx=0;entryDy=0;exitX=0;exitY=0.25;exitDx=0;exitDy=0;opacity=70;" parent="1" source="AVWZLnaALgfRunMzj7om-31" target="Hf6axC6okhhk_GOs8BiA-14" edge="1">
          <mxGeometry relative="1" as="geometry" />
        </mxCell>
        <mxCell id="AVWZLnaALgfRunMzj7om-42" value="Models" style="verticalAlign=top;align=left;spacingTop=8;spacingLeft=2;spacingRight=12;shape=cube;size=10;direction=south;fontStyle=4;html=1;strokeColor=#808080;" parent="1" vertex="1">
          <mxGeometry x="1240" y="1303" width="700" height="280" as="geometry" />
        </mxCell>
        <mxCell id="AVWZLnaALgfRunMzj7om-43" value="&lt;p style=&quot;margin: 0px ; margin-top: 4px ; text-align: center&quot;&gt;&lt;i&gt;&amp;lt;&amp;lt;Interface&amp;gt;&amp;gt;&lt;/i&gt;&lt;br&gt;&lt;b&gt;IModel&amp;lt;TId&amp;gt;&lt;/b&gt;&lt;/p&gt;&lt;p style=&quot;margin: 0px ; margin-left: 4px&quot;&gt;&lt;br&gt;&lt;/p&gt;&lt;hr size=&quot;1&quot;&gt;&lt;p style=&quot;margin: 0px ; margin-left: 4px&quot;&gt;+ Id: TId&lt;/p&gt;" style="verticalAlign=top;align=left;overflow=fill;fontSize=12;fontFamily=Helvetica;html=1;" parent="1" vertex="1">
          <mxGeometry x="1280" y="1355" width="126" height="80" as="geometry" />
        </mxCell>
        <mxCell id="AVWZLnaALgfRunMzj7om-73" value="" style="edgeStyle=orthogonalEdgeStyle;rounded=0;orthogonalLoop=1;jettySize=auto;html=1;startArrow=none;startFill=0;endArrow=block;endFill=0;strokeColor=#FFFFFF;strokeWidth=1;fillColor=none;gradientColor=none;fontColor=#808080;entryX=1;entryY=0.25;entryDx=0;entryDy=0;exitX=0.005;exitY=0.088;exitDx=0;exitDy=0;dashed=1;exitPerimeter=0;" parent="1" source="AVWZLnaALgfRunMzj7om-54" target="AVWZLnaALgfRunMzj7om-43" edge="1">
          <mxGeometry relative="1" as="geometry">
            <mxPoint x="1421" y="1450" as="targetPoint" />
          </mxGeometry>
        </mxCell>
        <mxCell id="AVWZLnaALgfRunMzj7om-54" value="TodoModel: IModel&lt;Guid&gt;" style="swimlane;fontStyle=1;align=center;verticalAlign=top;childLayout=stackLayout;horizontal=1;startSize=26;horizontalStack=0;resizeParent=1;resizeParentMax=0;resizeLast=0;collapsible=1;marginBottom=0;" parent="1" vertex="1">
          <mxGeometry x="1470" y="1355" width="190" height="216" as="geometry">
            <mxRectangle x="500" y="2300" width="120" height="26" as="alternateBounds" />
          </mxGeometry>
        </mxCell>
        <mxCell id="AVWZLnaALgfRunMzj7om-55" value="+ Id: Guid&#xa;" style="text;strokeColor=none;fillColor=none;align=left;verticalAlign=top;spacingLeft=4;spacingRight=4;overflow=hidden;rotatable=0;points=[[0,0.5],[1,0.5]];portConstraint=eastwest;" parent="AVWZLnaALgfRunMzj7om-54" vertex="1">
          <mxGeometry y="26" width="190" height="26" as="geometry" />
        </mxCell>
        <mxCell id="AVWZLnaALgfRunMzj7om-58" value="+ Title: string" style="text;strokeColor=none;fillColor=none;align=left;verticalAlign=top;spacingLeft=4;spacingRight=4;overflow=hidden;rotatable=0;points=[[0,0.5],[1,0.5]];portConstraint=eastwest;" parent="AVWZLnaALgfRunMzj7om-54" vertex="1">
          <mxGeometry y="52" width="190" height="26" as="geometry" />
        </mxCell>
        <mxCell id="AVWZLnaALgfRunMzj7om-59" value="+ Description: string" style="text;strokeColor=none;fillColor=none;align=left;verticalAlign=top;spacingLeft=4;spacingRight=4;overflow=hidden;rotatable=0;points=[[0,0.5],[1,0.5]];portConstraint=eastwest;" parent="AVWZLnaALgfRunMzj7om-54" vertex="1">
          <mxGeometry y="78" width="190" height="26" as="geometry" />
        </mxCell>
        <mxCell id="AVWZLnaALgfRunMzj7om-60" value="+ DueDate: DateTime" style="text;strokeColor=none;fillColor=none;align=left;verticalAlign=top;spacingLeft=4;spacingRight=4;overflow=hidden;rotatable=0;points=[[0,0.5],[1,0.5]];portConstraint=eastwest;" parent="AVWZLnaALgfRunMzj7om-54" vertex="1">
          <mxGeometry y="104" width="190" height="26" as="geometry" />
        </mxCell>
        <mxCell id="AVWZLnaALgfRunMzj7om-61" value="+ CreatedOn: DateTime" style="text;strokeColor=none;fillColor=none;align=left;verticalAlign=top;spacingLeft=4;spacingRight=4;overflow=hidden;rotatable=0;points=[[0,0.5],[1,0.5]];portConstraint=eastwest;" parent="AVWZLnaALgfRunMzj7om-54" vertex="1">
          <mxGeometry y="130" width="190" height="26" as="geometry" />
        </mxCell>
        <mxCell id="AVWZLnaALgfRunMzj7om-62" value="+ Status: TodoStatus" style="text;strokeColor=none;fillColor=none;align=left;verticalAlign=top;spacingLeft=4;spacingRight=4;overflow=hidden;rotatable=0;points=[[0,0.5],[1,0.5]];portConstraint=eastwest;" parent="AVWZLnaALgfRunMzj7om-54" vertex="1">
          <mxGeometry y="156" width="190" height="26" as="geometry" />
        </mxCell>
        <mxCell id="AVWZLnaALgfRunMzj7om-56" value="" style="line;strokeWidth=1;fillColor=none;align=left;verticalAlign=middle;spacingTop=-1;spacingLeft=3;spacingRight=3;rotatable=0;labelPosition=right;points=[];portConstraint=eastwest;" parent="AVWZLnaALgfRunMzj7om-54" vertex="1">
          <mxGeometry y="182" width="190" height="8" as="geometry" />
        </mxCell>
        <mxCell id="AVWZLnaALgfRunMzj7om-57" value="+ " style="text;strokeColor=none;fillColor=none;align=left;verticalAlign=top;spacingLeft=4;spacingRight=4;overflow=hidden;rotatable=0;points=[[0,0.5],[1,0.5]];portConstraint=eastwest;" parent="AVWZLnaALgfRunMzj7om-54" vertex="1">
          <mxGeometry y="190" width="190" height="26" as="geometry" />
        </mxCell>
        <mxCell id="AVWZLnaALgfRunMzj7om-74" value="&lt;p style=&quot;margin: 0px ; margin-top: 4px ; text-align: center&quot;&gt;&lt;i&gt;&amp;lt;&amp;lt;enum&amp;gt;&amp;gt;&lt;/i&gt;&lt;br&gt;&lt;b&gt;TodoStatus&lt;/b&gt;&lt;/p&gt;&lt;hr size=&quot;1&quot;&gt;&lt;p style=&quot;margin: 0px ; margin-left: 4px&quot;&gt;Open&lt;/p&gt;&lt;p style=&quot;margin: 0px ; margin-left: 4px&quot;&gt;InProgress&lt;/p&gt;&lt;p style=&quot;margin: 0px ; margin-left: 4px&quot;&gt;Done&lt;/p&gt;" style="verticalAlign=top;align=left;overflow=fill;fontSize=12;fontFamily=Helvetica;html=1;" parent="1" vertex="1">
          <mxGeometry x="1280" y="1475" width="125.5" height="96" as="geometry" />
        </mxCell>
        <mxCell id="AVWZLnaALgfRunMzj7om-75" value="" style="edgeStyle=orthogonalEdgeStyle;rounded=0;orthogonalLoop=1;jettySize=auto;html=1;startArrow=none;startFill=0;endArrow=classic;endFill=1;strokeWidth=1;fontColor=#808080;" parent="1" source="AVWZLnaALgfRunMzj7om-62" target="AVWZLnaALgfRunMzj7om-74" edge="1">
          <mxGeometry relative="1" as="geometry" />
        </mxCell>
        <mxCell id="AVWZLnaALgfRunMzj7om-90" value="" style="edgeStyle=orthogonalEdgeStyle;rounded=0;orthogonalLoop=1;jettySize=auto;html=1;startArrow=none;startFill=0;endArrow=classic;endFill=1;strokeColor=#808080;strokeWidth=1;fillColor=none;gradientColor=none;fontColor=#808080;entryX=0.75;entryY=0;entryDx=0;entryDy=0;exitX=0;exitY=0;exitDx=0;exitDy=0;dashed=1;opacity=70;" parent="1" source="AVWZLnaALgfRunMzj7om-81" target="AVWZLnaALgfRunMzj7om-43" edge="1">
          <mxGeometry relative="1" as="geometry">
            <Array as="points">
              <mxPoint x="1375" y="1335" />
            </Array>
          </mxGeometry>
        </mxCell>
        <mxCell id="AVWZLnaALgfRunMzj7om-81" value="UserModel: IModel&lt;Guid&gt;" style="swimlane;fontStyle=1;align=center;verticalAlign=top;childLayout=stackLayout;horizontal=1;startSize=26;horizontalStack=0;resizeParent=1;resizeParentMax=0;resizeLast=0;collapsible=1;marginBottom=0;strokeColor=#808080;opacity=70;fontColor=#808080;textOpacity=80;" parent="1" vertex="1">
          <mxGeometry x="1700" y="1335" width="190" height="216" as="geometry">
            <mxRectangle x="500" y="2300" width="120" height="26" as="alternateBounds" />
          </mxGeometry>
        </mxCell>
        <mxCell id="AVWZLnaALgfRunMzj7om-82" value="+ Id: Guid&#xa;" style="text;strokeColor=none;fillColor=none;align=left;verticalAlign=top;spacingLeft=4;spacingRight=4;overflow=hidden;rotatable=0;points=[[0,0.5],[1,0.5]];portConstraint=eastwest;opacity=70;fontColor=#808080;textOpacity=80;" parent="AVWZLnaALgfRunMzj7om-81" vertex="1">
          <mxGeometry y="26" width="190" height="26" as="geometry" />
        </mxCell>
        <mxCell id="AVWZLnaALgfRunMzj7om-83" value="+ username: string" style="text;strokeColor=none;fillColor=none;align=left;verticalAlign=top;spacingLeft=4;spacingRight=4;overflow=hidden;rotatable=0;points=[[0,0.5],[1,0.5]];portConstraint=eastwest;opacity=70;fontColor=#808080;textOpacity=80;" parent="AVWZLnaALgfRunMzj7om-81" vertex="1">
          <mxGeometry y="52" width="190" height="26" as="geometry" />
        </mxCell>
        <mxCell id="AVWZLnaALgfRunMzj7om-84" value="+ email: string" style="text;strokeColor=none;fillColor=none;align=left;verticalAlign=top;spacingLeft=4;spacingRight=4;overflow=hidden;rotatable=0;points=[[0,0.5],[1,0.5]];portConstraint=eastwest;opacity=70;fontColor=#808080;textOpacity=80;" parent="AVWZLnaALgfRunMzj7om-81" vertex="1">
          <mxGeometry y="78" width="190" height="26" as="geometry" />
        </mxCell>
        <mxCell id="AVWZLnaALgfRunMzj7om-85" value="+ firstName: string" style="text;strokeColor=none;fillColor=none;align=left;verticalAlign=top;spacingLeft=4;spacingRight=4;overflow=hidden;rotatable=0;points=[[0,0.5],[1,0.5]];portConstraint=eastwest;opacity=70;fontColor=#808080;textOpacity=80;" parent="AVWZLnaALgfRunMzj7om-81" vertex="1">
          <mxGeometry y="104" width="190" height="26" as="geometry" />
        </mxCell>
        <mxCell id="AVWZLnaALgfRunMzj7om-86" value="+ lastName: string" style="text;strokeColor=none;fillColor=none;align=left;verticalAlign=top;spacingLeft=4;spacingRight=4;overflow=hidden;rotatable=0;points=[[0,0.5],[1,0.5]];portConstraint=eastwest;opacity=70;fontColor=#808080;textOpacity=80;" parent="AVWZLnaALgfRunMzj7om-81" vertex="1">
          <mxGeometry y="130" width="190" height="26" as="geometry" />
        </mxCell>
        <mxCell id="AVWZLnaALgfRunMzj7om-87" value="+ password: string" style="text;strokeColor=none;fillColor=none;align=left;verticalAlign=top;spacingLeft=4;spacingRight=4;overflow=hidden;rotatable=0;points=[[0,0.5],[1,0.5]];portConstraint=eastwest;opacity=70;fontColor=#808080;textOpacity=80;" parent="AVWZLnaALgfRunMzj7om-81" vertex="1">
          <mxGeometry y="156" width="190" height="26" as="geometry" />
        </mxCell>
        <mxCell id="AVWZLnaALgfRunMzj7om-88" value="" style="line;strokeWidth=1;fillColor=none;align=left;verticalAlign=middle;spacingTop=-1;spacingLeft=3;spacingRight=3;rotatable=0;labelPosition=right;points=[];portConstraint=eastwest;strokeColor=#808080;opacity=70;" parent="AVWZLnaALgfRunMzj7om-81" vertex="1">
          <mxGeometry y="182" width="190" height="8" as="geometry" />
        </mxCell>
        <mxCell id="AVWZLnaALgfRunMzj7om-89" value="+ " style="text;strokeColor=none;fillColor=none;align=left;verticalAlign=top;spacingLeft=4;spacingRight=4;overflow=hidden;rotatable=0;points=[[0,0.5],[1,0.5]];portConstraint=eastwest;opacity=70;fontColor=#808080;textOpacity=80;" parent="AVWZLnaALgfRunMzj7om-81" vertex="1">
          <mxGeometry y="190" width="190" height="26" as="geometry" />
        </mxCell>
        <mxCell id="AVWZLnaALgfRunMzj7om-91" value="" style="shape=flexArrow;endArrow=classic;html=1;strokeWidth=2;fontColor=#808080;opacity=70;" parent="1" edge="1">
          <mxGeometry width="50" height="50" relative="1" as="geometry">
            <mxPoint x="20" y="680" as="sourcePoint" />
            <mxPoint x="-160" y="840" as="targetPoint" />
          </mxGeometry>
        </mxCell>
        <mxCell id="AVWZLnaALgfRunMzj7om-92" value="" style="shape=flexArrow;endArrow=classic;html=1;strokeWidth=2;fontColor=#808080;opacity=70;" parent="1" edge="1">
          <mxGeometry width="50" height="50" relative="1" as="geometry">
            <mxPoint x="477" y="680" as="sourcePoint" />
            <mxPoint x="477" y="840" as="targetPoint" />
          </mxGeometry>
        </mxCell>
        <mxCell id="AVWZLnaALgfRunMzj7om-95" value="" style="shape=flexArrow;endArrow=classic;html=1;strokeWidth=2;fontColor=#808080;opacity=70;exitX=1.021;exitY=0.9;exitDx=0;exitDy=0;exitPerimeter=0;" parent="1" source="mV1QOZqxOxAXT04KssM9-49" edge="1">
          <mxGeometry width="50" height="50" relative="1" as="geometry">
            <mxPoint x="970" y="730" as="sourcePoint" />
            <mxPoint x="1260" y="830" as="targetPoint" />
          </mxGeometry>
        </mxCell>
        <mxCell id="AVWZLnaALgfRunMzj7om-96" style="edgeStyle=orthogonalEdgeStyle;rounded=0;orthogonalLoop=1;jettySize=auto;html=1;exitX=1;exitY=0.5;exitDx=0;exitDy=0;entryX=0;entryY=0.5;entryDx=0;entryDy=0;endArrow=block;endFill=0;" parent="1" source="AVWZLnaALgfRunMzj7om-97" target="AVWZLnaALgfRunMzj7om-98" edge="1">
          <mxGeometry relative="1" as="geometry">
            <mxPoint x="655" y="859.76" as="sourcePoint" />
            <mxPoint x="685" y="859.76" as="targetPoint" />
          </mxGeometry>
        </mxCell>
        <mxCell id="AVWZLnaALgfRunMzj7om-97" value="A" style="text;html=1;strokeColor=none;fillColor=none;align=center;verticalAlign=middle;whiteSpace=wrap;rounded=0;" parent="1" vertex="1">
          <mxGeometry x="635.5" y="809.76" width="11" height="20" as="geometry" />
        </mxCell>
        <mxCell id="AVWZLnaALgfRunMzj7om-98" value="B" style="text;html=1;strokeColor=none;fillColor=none;align=center;verticalAlign=middle;whiteSpace=wrap;rounded=0;" parent="1" vertex="1">
          <mxGeometry x="675.5" y="809.76" width="11" height="20" as="geometry" />
        </mxCell>
        <mxCell id="AVWZLnaALgfRunMzj7om-99" value="A Inherits B" style="text;html=1;strokeColor=none;fillColor=none;align=right;verticalAlign=middle;whiteSpace=wrap;rounded=0;" parent="1" vertex="1">
          <mxGeometry x="733" y="809.76" width="90" height="20" as="geometry" />
        </mxCell>
        <mxCell id="AVWZLnaALgfRunMzj7om-102" value="ConsoleApp" style="verticalAlign=top;align=left;spacingTop=8;spacingLeft=2;spacingRight=12;shape=cube;size=10;direction=south;fontStyle=4;html=1;strokeColor=#808080;" parent="1" vertex="1">
          <mxGeometry x="-820" y="1000" width="509" height="530" as="geometry" />
        </mxCell>
        <mxCell id="AVWZLnaALgfRunMzj7om-106" value="" style="edgeStyle=orthogonalEdgeStyle;rounded=0;orthogonalLoop=1;jettySize=auto;html=1;startArrow=none;startFill=0;endArrow=classic;endFill=1;strokeWidth=1;fontColor=#808080;opacity=70;entryX=0;entryY=0;entryDx=265;entryDy=395.99999999999994;entryPerimeter=0;" parent="1" source="Hf6axC6okhhk_GOs8BiA-7" target="Hf6axC6okhhk_GOs8BiA-10" edge="1">
          <mxGeometry relative="1" as="geometry">
            <mxPoint x="755.5" y="1220" as="targetPoint" />
          </mxGeometry>
        </mxCell>
        <mxCell id="Hf6axC6okhhk_GOs8BiA-14" value="&lt;p style=&quot;margin: 0px ; margin-top: 4px ; text-align: center&quot;&gt;&lt;i&gt;&amp;lt;&amp;lt;Interface&amp;gt;&amp;gt;&lt;/i&gt;&lt;br&gt;&lt;b&gt;IUserRepository: IRepository&amp;lt;UserModel&amp;gt;&lt;/b&gt;&lt;/p&gt;&lt;hr size=&quot;1&quot;&gt;&lt;p style=&quot;margin: 0px ; margin-left: 4px&quot;&gt;&lt;br&gt;&lt;/p&gt;" style="verticalAlign=top;align=left;overflow=fill;fontSize=12;fontFamily=Helvetica;html=1;strokeColor=#808080;opacity=70;fontColor=#808080;textOpacity=70;" parent="1" vertex="1">
          <mxGeometry x="1218.25" y="2088" width="286" height="90" as="geometry" />
        </mxCell>
        <mxCell id="t5Qy9Iv25frJjo4sa_Ac-4" value="Utils" style="verticalAlign=top;align=left;spacingTop=8;spacingLeft=2;spacingRight=12;shape=cube;size=10;direction=south;fontStyle=4;html=1;strokeColor=#808080;" vertex="1" parent="1">
          <mxGeometry x="1930" y="1665" width="400" height="485" as="geometry" />
        </mxCell>
        <mxCell id="t5Qy9Iv25frJjo4sa_Ac-37" style="edgeStyle=orthogonalEdgeStyle;rounded=0;orthogonalLoop=1;jettySize=auto;html=1;exitX=0;exitY=0.25;exitDx=0;exitDy=0;entryX=1;entryY=0.5;entryDx=0;entryDy=0;endArrow=block;endFill=1;" edge="1" parent="1" source="t5Qy9Iv25frJjo4sa_Ac-5" target="AVWZLnaALgfRunMzj7om-9">
          <mxGeometry relative="1" as="geometry" />
        </mxCell>
        <mxCell id="t5Qy9Iv25frJjo4sa_Ac-5" value="&lt;p style=&quot;margin: 0px ; margin-top: 4px ; text-align: center&quot;&gt;&lt;i&gt;&amp;lt;&amp;lt;Interface&amp;gt;&amp;gt;&lt;/i&gt;&lt;br&gt;&lt;b&gt;internal IXmlContext&lt;/b&gt;&lt;/p&gt;&lt;hr size=&quot;1&quot;&gt;&lt;p style=&quot;margin: 0px ; margin-left: 4px&quot;&gt;+ GetContainer(XName name): XElement&lt;br&gt;&lt;/p&gt;&lt;p style=&quot;margin: 0px ; margin-left: 4px&quot;&gt;+ Save(): void&lt;/p&gt;" style="verticalAlign=top;align=left;overflow=fill;fontSize=12;fontFamily=Helvetica;html=1;" vertex="1" parent="1">
          <mxGeometry x="1960" y="1700" width="316" height="90" as="geometry" />
        </mxCell>
        <mxCell id="t5Qy9Iv25frJjo4sa_Ac-18" value="" style="edgeStyle=orthogonalEdgeStyle;rounded=0;orthogonalLoop=1;jettySize=auto;html=1;endArrow=block;endFill=0;dashed=1;" edge="1" parent="1" source="t5Qy9Iv25frJjo4sa_Ac-6" target="t5Qy9Iv25frJjo4sa_Ac-5">
          <mxGeometry relative="1" as="geometry" />
        </mxCell>
        <mxCell id="t5Qy9Iv25frJjo4sa_Ac-38" style="edgeStyle=orthogonalEdgeStyle;rounded=0;orthogonalLoop=1;jettySize=auto;html=1;exitX=0;exitY=0.25;exitDx=0;exitDy=0;entryX=1;entryY=0.25;entryDx=0;entryDy=0;endArrow=block;endFill=1;" edge="1" parent="1" source="t5Qy9Iv25frJjo4sa_Ac-19" target="AVWZLnaALgfRunMzj7om-18">
          <mxGeometry relative="1" as="geometry" />
        </mxCell>
        <mxCell id="t5Qy9Iv25frJjo4sa_Ac-19" value="internal static XmlParser" style="swimlane;fontStyle=1;align=center;verticalAlign=top;childLayout=stackLayout;horizontal=1;startSize=26;horizontalStack=0;resizeParent=1;resizeParentMax=0;resizeLast=0;collapsible=1;marginBottom=0;" vertex="1" parent="1">
          <mxGeometry x="1958" y="2020" width="320" height="60" as="geometry">
            <mxRectangle x="500" y="2300" width="120" height="26" as="alternateBounds" />
          </mxGeometry>
        </mxCell>
        <mxCell id="t5Qy9Iv25frJjo4sa_Ac-22" value="" style="line;strokeWidth=1;fillColor=none;align=left;verticalAlign=middle;spacingTop=-1;spacingLeft=3;spacingRight=3;rotatable=0;labelPosition=right;points=[];portConstraint=eastwest;" vertex="1" parent="t5Qy9Iv25frJjo4sa_Ac-19">
          <mxGeometry y="26" width="320" height="8" as="geometry" />
        </mxCell>
        <mxCell id="t5Qy9Iv25frJjo4sa_Ac-24" value="+ ..." style="text;strokeColor=none;fillColor=none;align=left;verticalAlign=top;spacingLeft=4;spacingRight=4;overflow=hidden;rotatable=0;points=[[0,0.5],[1,0.5]];portConstraint=eastwest;" vertex="1" parent="t5Qy9Iv25frJjo4sa_Ac-19">
          <mxGeometry y="34" width="320" height="26" as="geometry" />
        </mxCell>
        <mxCell id="t5Qy9Iv25frJjo4sa_Ac-6" value="internal XmlContext" style="swimlane;fontStyle=1;align=center;verticalAlign=top;childLayout=stackLayout;horizontal=1;startSize=26;horizontalStack=0;resizeParent=1;resizeParentMax=0;resizeLast=0;collapsible=1;marginBottom=0;" vertex="1" parent="1">
          <mxGeometry x="1958" y="1830.5" width="320" height="164" as="geometry">
            <mxRectangle x="500" y="2300" width="120" height="26" as="alternateBounds" />
          </mxGeometry>
        </mxCell>
        <mxCell id="t5Qy9Iv25frJjo4sa_Ac-7" value="- Path: string" style="text;strokeColor=none;fillColor=none;align=left;verticalAlign=top;spacingLeft=4;spacingRight=4;overflow=hidden;rotatable=0;points=[[0,0.5],[1,0.5]];portConstraint=eastwest;" vertex="1" parent="t5Qy9Iv25frJjo4sa_Ac-6">
          <mxGeometry y="26" width="320" height="26" as="geometry" />
        </mxCell>
        <mxCell id="t5Qy9Iv25frJjo4sa_Ac-8" value="- Document: XDocument" style="text;strokeColor=none;fillColor=none;align=left;verticalAlign=top;spacingLeft=4;spacingRight=4;overflow=hidden;rotatable=0;points=[[0,0.5],[1,0.5]];portConstraint=eastwest;" vertex="1" parent="t5Qy9Iv25frJjo4sa_Ac-6">
          <mxGeometry y="52" width="320" height="26" as="geometry" />
        </mxCell>
        <mxCell id="t5Qy9Iv25frJjo4sa_Ac-13" value="" style="line;strokeWidth=1;fillColor=none;align=left;verticalAlign=middle;spacingTop=-1;spacingLeft=3;spacingRight=3;rotatable=0;labelPosition=right;points=[];portConstraint=eastwest;" vertex="1" parent="t5Qy9Iv25frJjo4sa_Ac-6">
          <mxGeometry y="78" width="320" height="8" as="geometry" />
        </mxCell>
        <mxCell id="t5Qy9Iv25frJjo4sa_Ac-14" value="+  &lt;&lt;constructor&gt;&gt;(string path)&#xa;" style="text;strokeColor=none;fillColor=none;align=left;verticalAlign=top;spacingLeft=4;spacingRight=4;overflow=hidden;rotatable=0;points=[[0,0.5],[1,0.5]];portConstraint=eastwest;fontStyle=2" vertex="1" parent="t5Qy9Iv25frJjo4sa_Ac-6">
          <mxGeometry y="86" width="320" height="26" as="geometry" />
        </mxCell>
        <mxCell id="t5Qy9Iv25frJjo4sa_Ac-16" value="+ GetContainer(XName name): XElement" style="text;strokeColor=none;fillColor=none;align=left;verticalAlign=top;spacingLeft=4;spacingRight=4;overflow=hidden;rotatable=0;points=[[0,0.5],[1,0.5]];portConstraint=eastwest;" vertex="1" parent="t5Qy9Iv25frJjo4sa_Ac-6">
          <mxGeometry y="112" width="320" height="26" as="geometry" />
        </mxCell>
        <mxCell id="t5Qy9Iv25frJjo4sa_Ac-17" value="+ Save(): void" style="text;strokeColor=none;fillColor=none;align=left;verticalAlign=top;spacingLeft=4;spacingRight=4;overflow=hidden;rotatable=0;points=[[0,0.5],[1,0.5]];portConstraint=eastwest;" vertex="1" parent="t5Qy9Iv25frJjo4sa_Ac-6">
          <mxGeometry y="138" width="320" height="26" as="geometry" />
        </mxCell>
      </root>
    </mxGraphModel>
  </diagram>
</mxfile>
